<svg id="mermaidChart0" width="100%" xmlns="http://www.w3.org/2000/svg" height="100%" style="max-width:1050px;" viewBox="-50 -10 1050 511"><style type="text/css" title="mermaid-svg-internal-css">/*  */
*, ::before, ::after { box-sizing: inherit;}
.actor { stroke: rgb(204, 204, 255); fill: rgb(226, 236, 255);}
text.actor { fill: black; stroke: none; font-size: 12px;}
.actor-line { stroke: grey;}
.messageLine0 { stroke-width: 1.5; stroke: black;}
.messageLine1 { stroke-width: 1.5; stroke: black;}
#arrowhead { fill: black;}
.messageText { fill: black; stroke: none; font-size: 12px;}
.actor { stroke: rgb(204, 204, 255); fill: rgb(236, 236, 255);}
text.actor { fill: black; stroke: none;}
.actor-line { stroke: grey;}
.messageLine0 { stroke-width: 1.5; stroke: rgb(51, 51, 51);}
.messageLine1 { stroke-width: 1.5; stroke: rgb(51, 51, 51);}
#arrowhead { fill: rgb(51, 51, 51);}
#crosshead path { fill: rgb(51, 51, 51) !important; stroke: rgb(51, 51, 51) !important;}
.messageText { fill: rgb(51, 51, 51); stroke: none;}
text { font-family: "trebuchet ms", verdana, arial; font-size: 14px;}
/*  */
</style><g></g><g><line id="actor0" x1="75" y1="5" x2="75" y2="500" class="actor-line" stroke-width="0.5px" stroke="#999"></line><rect x="0" y="0" fill="#eaeaea" stroke="#666" width="150" height="65" rx="3" ry="3" class="actor"></rect><text x="75" y="37.5" class="actor" style="text-anchor: middle;">Actor Staff</text></g><g><line id="actor1" x1="275" y1="5" x2="275" y2="500" class="actor-line" stroke-width="0.5px" stroke="#999"></line><rect x="200" y="0" fill="#eaeaea" stroke="#666" width="150" height="65" rx="3" ry="3" class="actor"></rect><text x="275" y="37.5" class="actor" style="text-anchor: middle;">GUI Search</text></g><g><line id="actor2" x1="475" y1="5" x2="475" y2="500" class="actor-line" stroke-width="0.5px" stroke="#999"></line><rect x="400" y="0" fill="#eaeaea" stroke="#666" width="150" height="65" rx="3" ry="3" class="actor"></rect><text x="475" y="37.5" class="actor" style="text-anchor: middle;">SearchFacade</text></g><g><line id="actor3" x1="675" y1="5" x2="675" y2="500" class="actor-line" stroke-width="0.5px" stroke="#999"></line><rect x="600" y="0" fill="#eaeaea" stroke="#666" width="150" height="65" rx="3" ry="3" class="actor"></rect><text x="675" y="37.5" class="actor" style="text-anchor: middle;">KeywordSet</text></g><g><line id="actor4" x1="875" y1="5" x2="875" y2="500" class="actor-line" stroke-width="0.5px" stroke="#999"></line><rect x="800" y="0" fill="#eaeaea" stroke="#666" width="150" height="65" rx="3" ry="3" class="actor"></rect><text x="875" y="37.5" class="actor" style="text-anchor: middle;">OrderModel</text></g><defs><marker id="arrowhead" refX="5" refY="2" markerWidth="6" markerHeight="4" orient="auto"><path d="M 0,0 V 4 L6,2 Z"></path></marker></defs><defs><marker id="crosshead" markerWidth="15" markerHeight="8" orient="auto" refX="16" refY="4"><path fill="black" stroke="#000000" stroke-width="1px" d="M 9,2 V 6 L16,4 Z" style="stroke-dasharray: 0, 0;"></path><path fill="none" stroke="#000000" stroke-width="1px" d="M 0,1 L 6,7 M 6,1 L 0,7" style="stroke-dasharray: 0, 0;"></path></marker></defs><g><rect x="70" y="67" fill="#f4f4f4" stroke="#666" width="10" height="103" rx="0" ry="0"></rect></g><g><text x="177.5" y="93" class="messageText" style="text-anchor: middle;"></text><line x1="80" y1="100" x2="275" y2="100" class="messageLine0" stroke-width="2" stroke="black" marker-end="url(#arrowhead)" style="fill: none;"></line></g><g><rect x="270" y="102" fill="#f4f4f4" stroke="#666" width="10" height="313" rx="0" ry="0"></rect></g><g><text x="577.5" y="128" class="messageText" style="text-anchor: middle;">getAll()</text><line x1="280" y1="135" x2="875" y2="135" class="messageLine0" stroke-width="2" stroke="black" marker-end="url(#arrowhead)" style="fill: none;"></line></g><g><rect x="870" y="137" fill="#f4f4f4" stroke="#666" width="10" height="33" rx="0" ry="0"></rect></g><g><text x="575" y="163" class="messageText" style="text-anchor: middle;">[order set]</text><line x1="870" y1="170" x2="280" y2="170" class="messageLine1" stroke-width="2" stroke="black" marker-end="url(#arrowhead)" style="stroke-dasharray: 3, 3; fill: none;"></line></g><g><rect x="70" y="172" fill="#f4f4f4" stroke="#666" width="10" height="243" rx="0" ry="0"></rect></g><g><text x="175" y="198" class="messageText" style="text-anchor: middle;">search(inputKeyword)</text><line x1="80" y1="205" x2="270" y2="205" class="messageLine0" stroke-width="2" stroke="black" marker-end="url(#arrowhead)" style="fill: none;"></line></g><g><text x="477.5" y="233" class="messageText" style="text-anchor: middle;">getKeyWord(inputKeyword)</text><line x1="280" y1="240" x2="675" y2="240" class="messageLine0" stroke-width="2" stroke="black" marker-end="url(#arrowhead)" style="fill: none;"></line></g><g><rect x="670" y="242" fill="#f4f4f4" stroke="#666" width="10" height="33" rx="0" ry="0"></rect></g><g><text x="572.5" y="268" class="messageText" style="text-anchor: middle;">[keyword set]</text><line x1="670" y1="275" x2="475" y2="275" class="messageLine1" stroke-width="2" stroke="black" marker-end="url(#arrowhead)" style="stroke-dasharray: 3, 3; fill: none;"></line></g><g><rect x="470" y="277" fill="#f4f4f4" stroke="#666" width="10" height="103" rx="0" ry="0"></rect></g><g><rect x="870" y="277" fill="#f4f4f4" stroke="#666" width="10" height="68" rx="0" ry="0"></rect></g><g><text x="675" y="303" class="messageText" style="text-anchor: middle;">getByKeyword([keyword set])</text><line x1="480" y1="310" x2="870" y2="310" class="messageLine0" stroke-width="2" stroke="black" marker-end="url(#arrowhead)" style="fill: none;"></line></g><g><text x="675" y="338" class="messageText" style="text-anchor: middle;">[Order result set]</text><line x1="870" y1="345" x2="480" y2="345" class="messageLine1" stroke-width="2" stroke="black" marker-end="url(#arrowhead)" style="stroke-dasharray: 3, 3; fill: none;"></line></g><g><text x="375" y="373" class="messageText" style="text-anchor: middle;">[Order result set]</text><line x1="470" y1="380" x2="280" y2="380" class="messageLine1" stroke-width="2" stroke="black" marker-end="url(#arrowhead)" style="stroke-dasharray: 3, 3; fill: none;"></line></g><g><text x="175" y="408" class="messageText" style="text-anchor: middle;"></text><line x1="270" y1="415" x2="80" y2="415" class="messageLine1" stroke-width="2" stroke="black" marker-end="url(#arrowhead)" style="stroke-dasharray: 3, 3; fill: none;"></line></g><g><rect x="0" y="435" fill="#eaeaea" stroke="#666" width="150" height="65" rx="3" ry="3" class="actor"></rect><text x="75" y="472.5" class="actor" style="text-anchor: middle;">Actor Staff</text></g><g><rect x="200" y="435" fill="#eaeaea" stroke="#666" width="150" height="65" rx="3" ry="3" class="actor"></rect><text x="275" y="472.5" class="actor" style="text-anchor: middle;">GUI Search</text></g><g><rect x="400" y="435" fill="#eaeaea" stroke="#666" width="150" height="65" rx="3" ry="3" class="actor"></rect><text x="475" y="472.5" class="actor" style="text-anchor: middle;">SearchFacade</text></g><g><rect x="600" y="435" fill="#eaeaea" stroke="#666" width="150" height="65" rx="3" ry="3" class="actor"></rect><text x="675" y="472.5" class="actor" style="text-anchor: middle;">KeywordSet</text></g><g><rect x="800" y="435" fill="#eaeaea" stroke="#666" width="150" height="65" rx="3" ry="3" class="actor"></rect><text x="875" y="472.5" class="actor" style="text-anchor: middle;">OrderModel</text></g></svg>